<svg width="771" height="720" viewBox="0 0 771 720" fill="none" xmlns="http://www.w3.org/2000/svg">
<path fill-rule="evenodd" clip-rule="evenodd" d="M449.673 231.042C530.414 227.913 618.441 219.013 683.833 259.674C749.226 300.335 757.057 377.542 788.044 441.44C822.487 512.464 903.65 580.958 874.978 653.837C846.286 726.766 726.583 730.938 655.58 778.138C580.863 827.808 543.913 929.479 449.673 936.566C355.716 943.632 288.256 862.79 215.686 811.221C148.323 763.353 78.5402 717.246 44.0856 648.353C7.32122 574.84 -19.1498 488.884 17.7396 415.418C53.7665 343.669 148.782 312.097 230.428 277.246C299.471 247.774 372.6 234.029 449.673 231.042Z" fill="#1C1E52"/>
<path fill-rule="evenodd" clip-rule="evenodd" d="M695.871 -207.898C801.017 -183.417 884.689 -122.629 964.151 -49.5952C1048.84 28.2387 1125.65 151.665 1119.79 266.491C1113.99 380.046 989.92 441.384 898.121 508.565C825.116 561.993 746.36 605.854 655.871 605.999C565.231 606.145 480.373 569.759 412.84 509.346C340.876 444.969 302.32 359.455 276.349 266.491C235.876 121.621 124.563 -52.0848 224.597 -164.471C323.923 -276.064 550.315 -241.788 695.871 -207.898Z" fill="#FD8061"/>
<path fill-rule="evenodd" clip-rule="evenodd" d="M695.871 -207.898C801.017 -183.417 884.689 -122.629 964.151 -49.5952C1048.84 28.2387 1125.65 151.665 1119.79 266.491C1113.99 380.046 989.92 441.384 898.121 508.565C825.116 561.993 746.36 605.854 655.871 605.999C565.231 606.145 480.373 569.759 412.84 509.346C340.876 444.969 302.32 359.455 276.349 266.491C235.876 121.621 124.563 -52.0848 224.597 -164.471C323.923 -276.064 550.315 -241.788 695.871 -207.898Z" stroke="#FD8061"/>
<path fill-rule="evenodd" clip-rule="evenodd" d="M679.871 -207.898C785.017 -183.417 868.689 -122.629 948.151 -49.5952C1032.84 28.2387 1109.65 151.665 1103.79 266.491C1097.99 380.046 973.92 441.384 882.121 508.565C809.116 561.993 730.36 605.854 639.871 605.999C549.231 606.145 464.373 569.759 396.84 509.346C324.876 444.969 286.32 359.455 260.349 266.491C219.876 121.621 108.563 -52.0848 208.597 -164.471C307.923 -276.064 534.315 -241.788 679.871 -207.898Z" stroke="#FD8061"/>
<path fill-rule="evenodd" clip-rule="evenodd" d="M663.871 -207.898C769.017 -183.417 852.689 -122.629 932.151 -49.5952C1016.84 28.2387 1093.65 151.665 1087.79 266.491C1081.99 380.046 957.92 441.384 866.121 508.565C793.116 561.993 714.36 605.854 623.871 605.999C533.231 606.145 448.373 569.759 380.84 509.346C308.876 444.969 270.32 359.455 244.349 266.491C203.876 121.621 92.5633 -52.0848 192.597 -164.471C291.923 -276.064 518.315 -241.788 663.871 -207.898Z" stroke="#FD8061"/>
<path fill-rule="evenodd" clip-rule="evenodd" d="M647.871 -207.898C753.017 -183.417 836.689 -122.629 916.151 -49.5952C1000.84 28.2387 1077.65 151.665 1071.79 266.491C1065.99 380.046 941.92 441.384 850.121 508.565C777.116 561.993 698.36 605.854 607.871 605.999C517.231 606.145 432.373 569.759 364.84 509.346C292.876 444.969 254.32 359.455 228.349 266.491C187.876 121.621 76.5633 -52.0848 176.597 -164.471C275.923 -276.064 502.315 -241.788 647.871 -207.898Z" stroke="#FD8061"/>
<path fill-rule="evenodd" clip-rule="evenodd" d="M631.871 -207.898C737.017 -183.417 820.689 -122.629 900.151 -49.5952C984.835 28.2387 1061.65 151.665 1055.79 266.491C1049.99 380.046 925.92 441.384 834.121 508.565C761.116 561.993 682.36 605.854 591.871 605.999C501.231 606.145 416.373 569.759 348.84 509.346C276.876 444.969 238.32 359.455 212.349 266.491C171.876 121.621 60.5633 -52.0848 160.597 -164.471C259.923 -276.064 486.315 -241.788 631.871 -207.898Z" stroke="#FD8061"/>
<path fill-rule="evenodd" clip-rule="evenodd" d="M597.219 362.013C547.083 332.858 546.541 260 509.65 214.788C475.355 172.759 403.405 163.07 391.324 109.681C379.225 56.2143 419.944 5.07864 452.156 -39.2833C481.263 -79.3706 522.379 -104.63 564.866 -129.321C612.18 -156.818 658.205 -192.956 712.4 -190.523C770.892 -187.897 833.291 -164.508 866.721 -115.768C899.198 -68.4172 877.052 -4.56319 879.671 53.355C882.086 106.766 896.388 158.465 881.447 209.866C863.18 272.711 843.025 344.999 786.029 375.509C728.539 406.283 653.226 394.583 597.219 362.013Z" fill="#1C1E52"/>
</svg>
